<?xml version="1.0" standalone="no"?>
<!DOCTYPE svg PUBLIC "-//W3C//DTD SVG 20010904//EN"
 "http://www.w3.org/TR/2001/REC-SVG-20010904/DTD/svg10.dtd">
<svg version="1.0" xmlns="http://www.w3.org/2000/svg"
 width="565.000000pt" height="442.000000pt" viewBox="0 0 565.000000 442.000000"
 preserveAspectRatio="xMidYMid meet">

<g transform="translate(0.000000,442.000000) scale(0.100000,-0.100000)"
fill="#000000" stroke="none">
<path d="M3030 3856 c-113 -24 -250 -128 -300 -226 -12 -25 -24 -47 -26 -49
-2 -2 -37 -6 -77 -8 -194 -10 -445 -84 -607 -179 -94 -54 -251 -177 -312 -243
-139 -150 -261 -358 -313 -536 -29 -101 -57 -236 -50 -243 2 -3 11 1 20 8 10
8 32 11 60 8 43 -5 46 -4 50 21 111 552 515 945 1058 1026 l47 7 0 -109 c0
-117 6 -132 57 -147 48 -15 53 -48 53 -338 0 -177 3 -267 10 -263 6 3 10 21
10 39 0 27 8 38 50 70 l50 38 0 114 c0 67 -4 114 -10 114 -5 0 -25 -13 -43
-30 -19 -16 -38 -30 -41 -30 -4 0 -6 34 -4 76 l3 77 43 13 c48 14 253 35 329
33 l48 -1 -35 -10 c-103 -30 -170 -53 -212 -75 l-48 -23 0 -120 0 -120 44 22
44 21 10 76 9 76 2 -68 1 -69 33 7 c44 10 47 13 47 40 0 13 5 27 10 30 6 4 10
-5 10 -21 0 -26 1 -26 43 -20 174 27 325 90 450 186 l27 22 0 -78 c0 -87 -2
-90 -101 -156 -80 -53 -183 -93 -303 -119 l-106 -22 0 -82 c0 -67 3 -85 18
-99 18 -15 20 -15 36 3 25 28 63 34 98 17 40 -21 64 -7 72 41 17 89 29 115 63
129 43 19 83 18 112 -2 19 -14 22 -24 19 -59 -1 -24 0 -41 5 -38 4 2 8 -6 8
-19 1 -19 2 -19 8 6 3 16 21 40 39 54 l32 25 0 -27 c0 -14 5 -26 10 -26 6 0
10 82 10 225 0 129 4 225 9 225 8 0 22 -15 75 -81 43 -53 104 -154 143 -235
43 -92 44 -93 79 -92 23 1 42 -6 57 -20 27 -25 47 -28 47 -8 0 7 -11 44 -25
80 -60 159 -163 325 -272 439 l-46 48 22 20 c19 18 21 30 21 155 l0 135 -51
24 c-46 21 -55 31 -81 84 -96 200 -317 305 -538 257z m67 -52 c3 -8 -2 -23
-11 -32 -15 -15 -17 -15 -32 0 -21 21 -11 48 16 48 11 0 23 -7 27 -16z m-79
-52 c7 -49 -122 -138 -172 -119 -41 16 6 96 74 127 58 26 94 23 98 -8z m413
-62 c22 -21 68 -85 93 -127 4 -8 2 -13 -6 -13 -7 0 -23 19 -36 43 -13 24 -43
65 -67 92 -25 27 -45 50 -45 53 0 6 30 -17 61 -48z m-139 -166 c37 -4 66 -10
63 -14 -2 -3 36 -12 85 -19 49 -7 102 -17 117 -22 24 -8 22 -8 -12 -4 -22 3
-85 7 -140 9 l-100 5 90 -10 c144 -16 167 -29 45 -25 -58 2 -89 2 -70 0 64 -8
221 -36 217 -40 -2 -3 -35 0 -73 6 -38 5 -91 9 -119 9 -39 -1 -29 -4 49 -15
54 -7 101 -16 105 -20 6 -6 -122 1 -204 12 -30 4 -36 2 -25 -5 8 -6 34 -11 58
-11 58 0 183 -20 202 -32 11 -7 8 -8 -10 -3 -39 9 -190 16 -155 6 17 -4 -62
-6 -175 -3 -222 5 -471 -10 -548 -33 -26 -8 -50 -15 -54 -15 -5 0 -8 36 -8 81
l0 80 37 16 c85 35 455 63 625 47z m291 -91 c-7 -2 -19 -2 -25 0 -7 3 -2 5 12
5 14 0 19 -2 13 -5z m-83 -126 l65 -15 -95 7 c-126 8 -552 8 -665 -1 -111 -8
-98 -1 32 17 128 18 567 13 663 -8z m-110 -37 c94 -12 165 -28 157 -37 -3 -2
-32 1 -64 8 -93 21 -606 18 -702 -4 -89 -21 -103 -17 -25 8 131 41 414 52 634
25z m230 10 c11 -8 7 -9 -15 -4 -37 8 -45 14 -19 14 10 0 26 -5 34 -10z m-195
-84 c39 -8 86 -21 105 -30 19 -9 26 -14 15 -10 -116 34 -526 45 -699 19 -55
-8 -101 -13 -103 -12 -6 7 143 39 219 47 99 12 377 3 463 -14z"/>
<path d="M2982 2652 c-10 -7 -10 -14 1 -35 15 -29 7 -111 -13 -131 -6 -6 -10
-14 -10 -20 0 -5 14 3 30 19 28 27 30 34 30 102 0 74 -6 84 -38 65z"/>
<path d="M3364 2595 c-9 -49 0 -53 25 -10 26 44 26 45 1 45 -14 0 -21 -9 -26
-35z"/>
<path d="M4201 2595 l-33 -35 -20 25 c-26 33 -38 32 -79 -11 -28 -30 -30 -35
-12 -30 20 6 22 2 29 -50 8 -64 -2 -192 -16 -209 -6 -7 7 -18 41 -34 l50 -22
47 45 c26 25 42 46 36 46 -6 0 -17 -6 -24 -14 -9 -12 -17 -13 -36 -4 -23 11
-24 14 -24 123 0 99 2 114 20 130 20 18 21 18 44 -4 l24 -22 26 27 25 28 -21
23 c-29 31 -38 29 -77 -12z"/>
<path d="M2910 2570 c0 -5 -11 -17 -25 -26 -21 -14 -32 -15 -72 -5 l-46 12
-36 -39 c-43 -46 -81 -71 -136 -87 -36 -11 -40 -15 -43 -49 -2 -20 -9 -39 -15
-41 -7 -2 -24 -6 -39 -9 -37 -8 -94 -60 -107 -96 -13 -38 -6 -38 25 -1 21 25
84 51 123 51 7 0 11 -57 11 -169 0 -147 -2 -172 -18 -191 -16 -20 -22 -21 -57
-11 -87 24 -146 1 -161 -61 -7 -30 9 -39 20 -12 5 12 19 15 63 13 53 -3 67 2
163 52 58 29 123 72 146 95 48 47 54 72 54 220 0 111 2 113 67 114 21 0 43 26
43 50 0 12 -42 9 -92 -6 -16 -5 -18 2 -18 45 l0 51 41 0 c25 0 55 9 75 21 19
11 34 21 34 22 0 1 4 17 9 35 6 20 6 32 0 32 -5 0 -9 -4 -9 -10z m-227 -333
c-1 -95 -5 -182 -8 -194 -6 -26 -59 -89 -87 -104 -18 -9 -17 -5 6 34 26 43 26
47 26 240 l0 196 28 15 c24 13 28 13 32 -1 3 -8 5 -92 3 -186z"/>
<path d="M3823 2528 l-63 -41 0 -128 c0 -70 -2 -134 -6 -142 -4 -10 5 -16 33
-20 21 -4 49 -9 63 -12 20 -5 36 4 80 45 34 32 43 43 22 30 -27 -18 -39 -20
-70 -13 -34 8 -37 12 -40 48 -3 38 1 43 51 83 29 23 66 56 82 72 l29 30 -44
45 c-24 25 -51 45 -60 45 -8 -1 -43 -19 -77 -42z m72 -49 l40 -40 -43 -40
c-24 -21 -46 -39 -48 -39 -2 0 -4 36 -4 80 0 44 4 80 8 80 4 0 26 -18 47 -41z"/>
<path d="M3523 2474 c-26 -25 -35 -37 -19 -25 l28 20 34 -25 c19 -15 34 -30
34 -34 0 -4 -14 -22 -32 -41 -82 -89 -85 -92 -61 -80 36 18 71 13 88 -13 23
-35 10 -72 -47 -133 -42 -44 -49 -56 -46 -85 3 -29 7 -33 36 -36 17 -2 32 1
32 7 0 5 -12 9 -27 8 -23 -2 -29 2 -31 25 -2 19 4 31 23 45 116 81 155 124
155 172 0 29 -40 69 -78 78 l-34 8 51 55 c39 43 46 56 33 59 -9 2 -29 12 -44
22 -14 11 -31 19 -36 19 -6 0 -32 -21 -59 -46z"/>
<path d="M3305 2460 c-22 -23 -26 -33 -17 -42 8 -8 12 -50 12 -122 0 -189 24
-228 94 -155 23 24 33 37 24 30 -9 -7 -22 -10 -28 -6 -13 8 -14 262 0 270 16
10 12 20 -19 38 -37 21 -32 22 -66 -13z"/>
<path d="M3132 2420 l-33 -39 -27 30 -27 30 -39 -40 c-31 -32 -35 -39 -17 -34
21 5 21 3 21 -119 0 -82 -4 -128 -12 -136 -6 -6 -10 -13 -7 -14 2 -2 24 -13
48 -25 l44 -23 48 45 c27 25 45 45 41 45 -5 0 -13 -5 -19 -11 -7 -7 -23 -9
-37 -5 l-26 6 0 113 c1 77 5 117 14 130 18 23 32 22 50 -5 l16 -22 25 24 c14
13 25 29 25 35 0 11 -42 56 -51 54 -2 0 -19 -18 -37 -39z"/>
<path d="M3991 2377 c-12 -15 -5 -27 16 -27 7 0 13 9 13 20 0 23 -13 26 -29 7z"/>
<path d="M1640 2285 c0 -41 3 -45 45 -70 50 -29 50 -36 5 -55 l-30 -12 0 -129
c0 -74 -4 -130 -10 -134 -22 -14 -8 -25 30 -25 22 0 56 -6 74 -14 33 -14 35
-13 92 30 l59 43 5 156 c3 85 3 155 1 155 -2 0 -9 -7 -16 -16 -11 -15 -24 -10
-133 49 l-122 65 0 -43z m160 -130 l30 -16 0 -120 c0 -110 -2 -120 -17 -115
-10 3 -30 8 -45 12 l-28 6 0 117 c0 141 2 146 60 116z"/>
<path d="M1326 2241 l-74 -76 -4 -121 c-2 -87 -7 -126 -18 -138 -13 -17 -15
-17 -32 4 -63 78 -39 217 53 309 17 17 25 31 19 31 -21 0 -121 -110 -143 -157
-31 -69 -31 -184 2 -236 63 -103 181 -130 314 -73 44 19 110 78 136 121 24 41
14 46 -20 9 -34 -37 -119 -84 -151 -84 l-28 0 0 119 0 119 44 11 c25 6 56 11
70 11 20 0 30 9 46 41 l21 40 -47 -7 c-55 -8 -55 -8 24 84 30 34 53 62 51 62
-2 0 -45 2 -96 3 l-92 3 -75 -75z m40 -408 c-9 -21 -113 8 -131 37 -3 5 15 34
40 65 l45 56 0 111 c0 102 2 112 23 130 l22 20 3 -203 c1 -112 0 -209 -2 -216z
m105 407 c16 0 29 -4 29 -8 0 -10 -98 -126 -110 -130 -6 -2 -10 28 -10 73 l0
78 31 -7 c17 -3 44 -6 60 -6z"/>
<path d="M3193 2284 c-23 -10 -33 -21 -33 -37 0 -16 9 -27 33 -37 17 -7 35
-15 40 -18 4 -2 7 21 7 52 0 61 0 61 -47 40z"/>
<path d="M2058 2237 l-58 -41 0 -119 c0 -65 -5 -127 -10 -138 -10 -17 -7 -19
30 -19 22 0 57 -7 76 -15 35 -14 37 -14 66 10 17 14 43 32 59 41 l29 15 0 139
0 140 -27 6 c-16 3 -44 10 -63 15 -45 11 -36 14 -102 -34z m105 -39 c15 -7 17
-24 17 -123 0 -128 0 -128 -69 -104 l-31 11 0 120 0 120 33 -7 c17 -4 40 -11
50 -17z"/>
<path d="M2875 2207 c-39 -22 -40 -24 -46 -87 -10 -101 -48 -174 -110 -205
l-29 -16 0 -283 c0 -243 -2 -285 -15 -290 -9 -3 -15 -18 -15 -36 0 -53 -22
-106 -52 -123 l-28 -16 0 -129 c0 -121 1 -130 23 -150 13 -12 37 -25 55 -28
25 -5 34 -14 43 -43 33 -100 131 -203 246 -258 123 -59 271 -57 401 4 79 37
180 140 220 224 24 51 38 68 58 73 14 4 37 14 50 23 23 15 24 19 24 142 l0
127 -30 29 c-16 16 -30 33 -30 38 0 4 29 41 65 80 174 193 274 392 329 654 31
148 37 250 16 263 -24 15 -34 12 -78 -26 -36 -30 -42 -41 -42 -74 0 -48 -33
-205 -60 -290 -46 -141 -158 -333 -251 -430 l-24 -25 -3 301 -2 300 -29 -4
c-44 -6 -99 16 -116 46 -10 19 -14 22 -15 10 0 -24 -40 -45 -51 -27 -7 11 -9
10 -9 -3 0 -19 -79 -52 -179 -73 -36 -8 -100 -23 -141 -34 -41 -11 -78 -21
-82 -21 -5 0 -8 -55 -8 -121 0 -121 0 -121 23 -115 12 3 63 15 112 27 50 12
126 32 170 45 44 13 85 22 90 21 18 -4 6 -140 -13 -155 -15 -11 -18 -9 -23 15
l-7 28 -1 -28 c-1 -34 -13 -39 -181 -77 -182 -41 -180 -40 -182 -97 l-1 -48
-4 43 c-2 23 -9 42 -15 42 -18 0 -119 -59 -165 -96 -23 -19 -44 -34 -47 -34
-3 0 -6 34 -6 75 0 72 1 76 33 105 17 16 67 49 110 72 l78 43 -7 110 c-3 61
-8 112 -10 114 -2 3 -20 -3 -39 -12 -35 -16 -35 -17 -35 -81 0 -76 -9 -128
-21 -120 -5 3 -10 26 -10 52 -1 26 -4 60 -8 76 l-6 30 -36 -32 c-20 -18 -39
-32 -43 -32 -3 0 -6 35 -6 78 l1 77 49 39 c44 35 50 44 50 77 0 21 5 41 10 44
6 3 10 -3 10 -14 0 -47 9 -52 51 -31 l39 20 0 120 c0 66 -1 120 -2 120 -2 0
-21 -11 -43 -23z m679 -528 c-28 -31 -34 -22 -34 53 0 61 3 75 23 96 l22 24 3
-77 c2 -62 -1 -81 -14 -96z m-78 -56 c-3 -8 -10 -11 -16 -8 -15 9 -13 152 3
158 9 3 13 -16 15 -66 2 -39 1 -76 -2 -84z m-56 38 c0 -61 -3 -80 -15 -85 -13
-4 -15 7 -15 73 0 43 3 81 7 84 17 18 23 1 23 -72z m148 -356 c-2 -2 -12 -5
-23 -7 -18 -3 -20 3 -23 51 -3 45 1 58 20 78 l23 25 3 -72 c2 -40 2 -74 0 -75z
m-88 26 c0 -22 -4 -43 -10 -46 -6 -4 -10 12 -10 39 0 25 5 46 10 46 6 0 10
-18 10 -39z m-73 -38 c-3 -10 -5 -2 -5 17 0 19 2 27 5 18 2 -10 2 -26 0 -35z
m-61 -20 c-11 -11 -19 6 -11 24 8 17 8 17 12 0 3 -10 2 -21 -1 -24z m-56 2 c0
-11 -11 -15 -42 -14 l-43 1 35 13 c46 18 50 18 50 0z m-390 -51 c185 -22 472
-12 642 21 l37 7 7 -50 c5 -44 10 -52 36 -63 34 -14 26 -23 -34 -39 -65 -18
-309 -40 -451 -40 -224 0 -498 37 -489 66 3 12 26 10 202 -15 252 -36 591 -23
695 25 26 12 27 13 5 9 -203 -42 -667 -42 -809 1 -44 13 -51 18 -51 40 0 21 4
25 18 19 84 -34 515 -57 667 -37 82 12 191 40 182 48 -2 2 -17 0 -33 -6 -57
-22 -385 -35 -565 -22 -170 12 -239 26 -247 51 -4 11 2 12 24 7 16 -3 90 -13
164 -22z m-103 -190 c88 -12 199 -17 440 -18 177 0 320 -2 319 -4 -2 -1 -45
-9 -97 -17 l-94 -14 90 4 c50 3 104 7 120 10 23 4 25 3 10 -3 -11 -5 -58 -15
-105 -21 -47 -6 -98 -13 -115 -15 -16 -3 17 -3 75 0 58 2 116 6 130 9 l25 5
-25 -10 c-14 -5 -68 -16 -120 -25 l-95 -15 85 5 c47 2 101 7 120 10 31 4 32 4
10 -5 -14 -5 -74 -16 -135 -24 l-110 -15 95 5 c52 2 111 7 130 10 19 4 32 3
29 0 -9 -10 -174 -36 -234 -37 -40 -1 -45 -3 -25 -9 49 -16 -372 -15 -490 1
-99 13 -172 29 -187 42 -9 6 -13 37 -13 88 l0 79 25 -10 c13 -5 77 -17 142
-26z m616 -181 c-7 -2 -21 -2 -30 0 -10 3 -4 5 12 5 17 0 24 -2 18 -5z m68
-151 c-32 -45 -96 -99 -150 -126 -101 -51 -262 -54 -350 -5 -26 14 -29 18 -11
14 14 -4 52 -14 85 -22 50 -13 72 -13 135 -3 95 15 203 67 260 125 51 52 60
57 31 17z"/>
<path d="M3293 973 c9 -2 25 -2 35 0 9 3 1 5 -18 5 -19 0 -27 -2 -17 -5z"/>
<path d="M3225 2090 c-14 -15 -15 -20 -4 -20 23 0 38 15 30 28 -6 9 -12 7 -26
-8z"/>
<path d="M1507 1707 c-21 -32 -37 -62 -37 -67 0 -24 329 -506 467 -685 174
-224 297 -290 351 -188 15 28 15 78 1 106 -7 12 -45 55 -85 95 -110 109 -302
336 -523 620 -23 30 -38 41 -51 37 -23 -7 -42 18 -35 47 4 16 -2 33 -23 57
l-29 35 -36 -57z m78 -35 c-3 -3 -17 6 -30 20 -13 14 -21 29 -17 33 4 3 17 -6
30 -20 13 -15 20 -30 17 -33z m-7 -65 c3 -23 0 -27 -22 -27 -28 0 -37 17 -24
43 14 27 42 17 46 -16z m144 -98 c164 -209 347 -426 452 -536 58 -61 106 -117
106 -124 0 -13 -122 107 -214 211 -137 153 -445 543 -439 553 3 5 6 7 8 5 2
-2 41 -51 87 -109z m483 -684 c0 -22 -31 -33 -47 -17 -17 17 -1 44 24 40 15
-2 23 -10 23 -23z"/>
</g>
</svg>
