<?xml version="1.0" encoding="UTF-8"?>
<svg version="1.1" xmlns="http://www.w3.org/2000/svg" width="105" height="120">
<path d="M0 0 C3.39903243 2.04952274 6.06919599 4.69092929 8.7734375 7.57421875 C10.65352819 9.53230447 12.62937216 11.29343506 14.6875 13.0625 C17.78967719 15.73616633 20.71209264 18.49801741 23.5625 21.4375 C27.56405241 19.65507131 30.29892625 17.06455131 33.46484375 14.09375 C39.41369746 9.3967035 46.31278554 9.62074936 53.5625 10.4375 C61.06981517 12.79809978 65.46723054 16.63543968 69.66835022 23.15313721 C70.93187787 26.381182 70.86566324 29.50799742 70.86889648 32.92480469 C70.87722 33.67331696 70.88554352 34.42182922 70.89411926 35.19302368 C70.91819402 37.66519391 70.92698924 40.1371 70.93359375 42.609375 C70.94256371 44.33327308 70.95168562 46.05717038 70.96095276 47.78106689 C70.97743964 51.39573048 70.98514202 55.0103015 70.98803711 58.625 C70.99341325 63.24300386 71.0310622 67.86012981 71.07678127 72.4778862 C71.10661924 76.03996911 71.11376216 79.60184262 71.11476326 83.16403961 C71.11895407 84.86561341 71.13134249 86.56718848 71.15228081 88.26863861 C71.33856993 104.7192843 71.33856993 104.7192843 65.5625 111.4375 C63.4296875 113.49609375 63.4296875 113.49609375 61.4375 114.875 C60.77492188 115.34808594 60.11234375 115.82117188 59.4296875 116.30859375 C55.63795912 118.60108225 52.21604789 118.66083253 47.875 118.75 C46.69550781 118.78738281 45.51601562 118.82476562 44.30078125 118.86328125 C35.41006996 117.8506506 29.93354469 112.43847586 23.75 106.375 C23.00041016 105.65505859 22.25082031 104.93511719 21.47851562 104.19335938 C18.47665316 101.30416735 15.50288841 98.38922157 12.5625 95.4375 C8.56094759 97.21992869 5.82607375 99.81044869 2.66015625 102.78125 C-3.28869746 107.4782965 -10.18778554 107.25425064 -17.4375 106.4375 C-24.94481517 104.07690022 -29.34223054 100.23956032 -33.54335022 93.72186279 C-34.80687787 90.493818 -34.74066324 87.36700258 -34.74389648 83.95019531 C-34.75222 83.20168304 -34.76054352 82.45317078 -34.76911926 81.68197632 C-34.79319402 79.20980609 -34.80198924 76.7379 -34.80859375 74.265625 C-34.81756371 72.54172692 -34.82668562 70.81782962 -34.83595276 69.09393311 C-34.85243964 65.47926952 -34.86014202 61.8646985 -34.86303711 58.25 C-34.86841325 53.63199614 -34.9060622 49.01487019 -34.95178127 44.3971138 C-34.98161924 40.83503089 -34.98876216 37.27315738 -34.98976326 33.71096039 C-34.99395407 32.00938659 -35.00634249 30.30781152 -35.02728081 28.60636139 C-35.21356993 12.1557157 -35.21356993 12.1557157 -29.4375 5.4375 C-27.3046875 3.37890625 -27.3046875 3.37890625 -25.3125 2 C-24.64992188 1.52691406 -23.98734375 1.05382812 -23.3046875 0.56640625 C-17.01632156 -3.23555559 -6.59134903 -3.03617259 0 0 Z M-21.4375 14.4375 C-22.89541455 17.3533291 -22.59711934 19.93790062 -22.63037109 23.19458008 C-22.63854858 23.88909775 -22.64672607 24.58361542 -22.65515137 25.29917908 C-22.68000069 27.60178769 -22.69652027 29.90433466 -22.7109375 32.20703125 C-22.71626118 32.99330084 -22.72158485 33.77957043 -22.72706985 34.58966637 C-22.75379975 38.75158081 -22.7731749 42.91346529 -22.78759766 47.07543945 C-22.80424332 51.3731669 -22.84901986 55.67012716 -22.8999691 59.96756458 C-22.93363432 63.27301407 -22.94517421 66.5782813 -22.95082474 69.88388634 C-22.95753956 71.46794179 -22.97276785 73.05198514 -22.99671555 74.63587379 C-23.02835686 76.85529607 -23.02840691 79.07264749 -23.02099609 81.29223633 C-23.02908295 82.55417313 -23.0371698 83.81610992 -23.04550171 85.11628723 C-22.27565474 89.32158067 -20.69910521 90.77139412 -17.4375 93.4375 C-14.11335064 95.09957468 -11.00352022 95.16663472 -7.4375 94.4375 C-1.31054305 90.98432108 3.52608414 85.59893273 8.3984375 80.609375 C10.29122813 78.70975119 12.21764074 76.93446413 14.25 75.1875 C18.20810089 71.77534406 22.08385511 68.27920469 25.9375 64.75 C26.55713623 64.19086914 27.17677246 63.63173828 27.81518555 63.05566406 C28.69170776 62.24887207 28.69170776 62.24887207 29.5859375 61.42578125 C30.11106934 60.94665283 30.63620117 60.46752441 31.17724609 59.97387695 C33.55174581 57.34033329 34.54434001 55.23653971 34.625 51.6875 C31.98123575 43.60069172 24.10717037 38.04895349 17.96484375 32.51953125 C13.48769374 28.48519086 9.109548 24.34460047 4.7265625 20.20849609 C-3.03932947 12.47601858 -3.03932947 12.47601858 -13.33203125 10.14453125 C-16.71343947 10.6150426 -18.86004136 12.30009528 -21.4375 14.4375 Z M35.5625 28.4375 C34.5725 29.9225 34.5725 29.9225 33.5625 31.4375 C34.17738281 31.994375 34.79226562 32.55125 35.42578125 33.125 C41.6930231 39.04239581 45.47734589 43.69457182 45.9375 52.4375 C45.43787449 60.87004406 41.81163137 65.93313506 35.875 71.5 C35.25157715 72.10344238 34.6281543 72.70688477 33.98583984 73.32861328 C29.64022446 77.50721982 25.21160085 81.59693843 20.5625 85.4375 C24.44118074 90.4070597 28.76798091 94.3643581 33.5625 98.4375 C35.67717185 100.30688478 37.78842102 102.18005134 39.8984375 104.0546875 C42.95479387 106.5944766 45.50707173 106.76644288 49.45703125 106.73046875 C52.83843947 106.2599574 54.98504136 104.57490472 57.5625 102.4375 C59.02041455 99.5216709 58.72211934 96.93709938 58.75537109 93.68041992 C58.76354858 92.98590225 58.77172607 92.29138458 58.78015137 91.57582092 C58.80500069 89.27321231 58.82152027 86.97066534 58.8359375 84.66796875 C58.84392302 83.48856437 58.84392302 83.48856437 58.85206985 82.28533363 C58.87879975 78.12341919 58.8981749 73.96153471 58.91259766 69.79956055 C58.92924332 65.5018331 58.97401986 61.20487284 59.0249691 56.90743542 C59.05863432 53.60198593 59.07017421 50.2967187 59.07582474 46.99111366 C59.08253956 45.40705821 59.09776785 43.82301486 59.12171555 42.23912621 C59.15335686 40.01970393 59.15340691 37.80235251 59.14599609 35.58276367 C59.15408295 34.32082687 59.1621698 33.05889008 59.17050171 31.75871277 C58.40065474 27.55341933 56.82410521 26.10360588 53.5625 23.4375 C46.36192722 19.83721361 40.75896688 23.42400731 35.5625 28.4375 Z " fill="#9E4ACA" transform="translate(34.4375,1.5625)"/>
<path d="M0 0 C5.35022582 3.06595733 9.22295436 7.05763199 11.5 12.875 C11.70485864 15.40691459 11.8040004 17.83019189 11.80639648 20.36230469 C11.81472 21.11081696 11.82304352 21.85932922 11.83161926 22.63052368 C11.85569402 25.10269391 11.86448924 27.5746 11.87109375 30.046875 C11.88006371 31.77077308 11.88918562 33.49467038 11.89845276 35.21856689 C11.91493964 38.83323048 11.92264202 42.4478015 11.92553711 46.0625 C11.93091325 50.68050386 11.9685622 55.29762981 12.01428127 59.9153862 C12.04411924 63.47746911 12.05126216 67.03934262 12.05226326 70.60153961 C12.05645407 72.30311341 12.06884249 74.00468848 12.08978081 75.70613861 C12.27606993 92.1567843 12.27606993 92.1567843 6.5 98.875 C4.3671875 100.93359375 4.3671875 100.93359375 2.375 102.3125 C1.38113281 103.02212891 1.38113281 103.02212891 0.3671875 103.74609375 C-3.42454088 106.03858225 -6.84645211 106.09833253 -11.1875 106.1875 C-12.36699219 106.22488281 -13.54648438 106.26226562 -14.76171875 106.30078125 C-23.58785122 105.29550597 -29.08860926 99.94020483 -35.25 93.9375 C-35.99121094 93.23431641 -36.73242188 92.53113281 -37.49609375 91.80664062 C-41.10960235 88.34558705 -44.50525702 84.90214121 -47.5 80.875 C-46.43283928 79.67294536 -45.34561663 78.48867667 -44.25 77.3125 C-43.64671875 76.65121094 -43.0434375 75.98992187 -42.421875 75.30859375 C-40.5 73.875 -40.5 73.875 -38.56884766 74.1262207 C-35.10162929 75.38111317 -32.73070925 78.10334589 -30.125 80.625 C-21.29350002 89.90362281 -21.29350002 89.90362281 -9.5390625 93.1015625 C-6.62831652 92.77814628 -4.77623116 91.66839425 -2.5 89.875 C-1.03515111 86.94530222 -1.37266186 84.35737144 -1.37060547 81.08618164 C-1.36885315 80.38845139 -1.36710083 79.69072113 -1.36529541 78.97184753 C-1.36088519 76.65959199 -1.36381229 74.34741261 -1.3671875 72.03515625 C-1.36651415 70.43094366 -1.36554386 68.82673116 -1.36428833 67.22251892 C-1.36281242 63.85740184 -1.36496221 60.49231127 -1.36962891 57.12719727 C-1.37532155 52.81166754 -1.37204947 48.49620007 -1.36605644 44.18067265 C-1.36244404 40.86673005 -1.36359263 37.55280222 -1.36618423 34.23885918 C-1.36685186 32.64762807 -1.3660308 31.05639563 -1.36370468 29.46516609 C-1.36116756 27.24114554 -1.36503395 25.01722592 -1.37060547 22.79321289 C-1.37140106 21.52683487 -1.37219666 20.26045685 -1.37301636 18.95570374 C-1.35920069 15.83591653 -1.35920069 15.83591653 -2.5 12.875 C-6.51665453 10.56238073 -10.97897961 9.89433749 -15.5 10.875 C-18.43789917 12.58527702 -20.92417261 14.67041159 -23.5 16.875 C-24.49 17.535 -25.48 18.195 -26.5 18.875 C-29.14 16.235 -31.78 13.595 -34.5 10.875 C-25.55919103 -0.24649408 -14.23631459 -6.67929346 0 0 Z " fill="#FEA600" transform="translate(93.5,14.125)"/>
</svg>
