<?xml version="1.0" encoding="UTF-8"?>
<svg version="1.1" xmlns="http://www.w3.org/2000/svg" width="500" height="500">
<path d="M0 0 C0.84232178 0.22107422 1.68464355 0.44214844 2.55249023 0.66992188 C8.65304106 2.30740458 14.54077706 4.3108756 20.4609375 6.515625 C24.33332873 7.86626035 28.22620906 8.94836522 32.1875 10 C41.31043709 12.43553069 50.23127731 15.41841439 59.1706543 18.45214844 C73.4170735 23.28547427 73.4170735 23.28547427 87.9375 27.1875 C93.60180999 28.55705721 98.97196267 30.48846765 104.4375 32.49609375 C109.02878548 34.11210541 113.67857645 35.41810622 118.3671875 36.71875 C122.94761058 38.01899913 127.48052545 39.45110506 132.01879883 40.89013672 C136.51194219 42.30683951 141.02316617 43.61380651 145.5625 44.875 C149.10397587 45.8696614 152.52102283 46.86078909 155.875 48.375 C158.88897019 49.70114688 161.68994601 50.46993841 164.875 51.22265625 C167.2340965 51.8080938 169.55280237 52.46925618 171.875 53.1875 C172.98488281 53.52587891 172.98488281 53.52587891 174.1171875 53.87109375 C176 54.75 176 54.75 178 57.75 C177.45945946 62.29054054 177.45945946 62.29054054 176 63.75 C174.35892758 63.95839015 172.71143707 64.11751725 171.0625 64.25 C167.39442535 64.50214943 167.39442535 64.50214943 164 65.75 C164.00276538 66.41206609 164.00553076 67.07413218 164.00837994 67.75626087 C164.07459184 83.85518814 164.12425716 99.95406814 164.15543652 116.05309772 C164.17091484 123.83842669 164.1920227 131.62366486 164.22631836 139.40893555 C164.25619129 146.19345207 164.27556798 152.97790284 164.28226548 159.7624833 C164.28618135 163.35591691 164.29540395 166.94916239 164.31719017 170.54253578 C164.34129651 174.55098492 164.34197136 178.55910561 164.34057617 182.56762695 C164.35675491 184.36081612 164.35675491 184.36081612 164.3732605 186.19023132 C164.36913651 187.27978119 164.36501251 188.36933105 164.36076355 189.49189758 C164.36352893 190.44042256 164.36629431 191.38894754 164.36914349 192.36621571 C163.93113422 195.19470825 163.26185287 196.05200937 161 197.75 C158.57080078 198.57788086 158.57080078 198.57788086 155.6953125 199.21484375 C154.6429541 199.45549561 153.5905957 199.69614746 152.50634766 199.9440918 C150.83258057 200.31207886 150.83258057 200.31207886 149.125 200.6875 C146.84304061 201.21045577 144.56177929 201.73646761 142.28125 202.265625 C141.18941406 202.51892578 140.09757812 202.77222656 138.97265625 203.03320312 C134.47733156 204.11716118 130.10437921 205.45625616 125.70703125 206.88671875 C122.92828904 207.77286886 120.13586351 208.51975245 117.3125 209.25 C112.0146966 210.67042555 107.05099476 212.63002764 102 214.75 C100.37607237 215.39852505 98.75105909 216.04433787 97.125 216.6875 C96.29355469 217.02265625 95.46210938 217.3578125 94.60546875 217.703125 C92.84155026 218.41186586 91.0731278 219.10948155 89.30078125 219.796875 C82.26751279 222.59866816 75.65701666 225.9481942 69.05053711 229.62768555 C64.7537009 231.9815957 60.76392262 233.58548558 56 234.75 C56 235.41 56 236.07 56 236.75 C55.01257813 237.30429688 54.02515625 237.85859375 53.0078125 238.4296875 C51.71344465 239.16128672 50.41917913 239.89306699 49.125 240.625 C48.14853516 241.17220703 48.14853516 241.17220703 47.15234375 241.73046875 C44.49606646 243.23660536 42.16980999 244.58019001 40 246.75 C39.01 246.75 38.02 246.75 37 246.75 C37 247.41 37 248.07 37 248.75 C32.61538462 251.75 32.61538462 251.75 30 251.75 C29.67 252.74 29.34 253.73 29 254.75 C26.671875 256.3984375 26.671875 256.3984375 23.75 258.125 C19.09719359 260.95515143 19.09719359 260.95515143 15.0625 264.5625 C13.10630656 266.63725062 11.61412393 267.68498655 9 268.75 C9 269.41 9 270.07 9 270.75 C8.319375 271.12125 7.63875 271.4925 6.9375 271.875 C4.16428761 273.64513557 2.65823335 275.14737746 0.5625 277.625 C-7.01531356 286.53427321 -7.01531356 286.53427321 -11.875 287.0625 C-12.57625 286.959375 -13.2775 286.85625 -14 286.75 C-14.33 285.76 -14.66 284.77 -15 283.75 C-15.66 283.75 -16.32 283.75 -17 283.75 C-18.32691027 282.23483244 -19.58483832 280.65914348 -20.8125 279.0625 C-29.08349472 268.74370273 -38.46239061 259.73690212 -49 251.75 C-50.00675781 250.94949219 -51.01351562 250.14898437 -52.05078125 249.32421875 C-59.36154138 243.52522768 -66.90213809 238.40910022 -75 233.75 C-76.08063721 233.12158203 -76.08063721 233.12158203 -77.18310547 232.48046875 C-96.89549139 221.08251347 -119.09406712 209.71314512 -141.859375 206.171875 C-144 205.75 -144 205.75 -146.6953125 204.828125 C-150.78994126 203.49228867 -154.9100985 202.61658778 -159.125 201.75 C-160.38207764 201.4861853 -160.38207764 201.4861853 -161.66455078 201.21704102 C-167.27004444 200.05637283 -172.87580814 199.07660798 -178.5546875 198.33984375 C-183.54991296 197.13492515 -183.54991296 197.13492515 -186 194.75 C-186.71306296 191.00450261 -186.50451438 187.29707631 -186.375 183.5 C-186.35501953 182.29875488 -186.33503906 181.09750977 -186.31445312 179.85986328 C-186.23900646 175.82193724 -186.12487802 171.78661689 -186 167.75 C-185.95975341 166.40137336 -185.91971397 165.05274053 -185.87988281 163.70410156 C-185.85987717 163.02870834 -185.83987152 162.35331512 -185.81925964 161.65745544 C-185.73365697 158.74983415 -185.64941761 155.84217606 -185.56643677 152.93447876 C-185.52198785 151.38934284 -185.47646843 149.84423735 -185.42990112 148.29916382 C-184.89265727 130.13920969 -184.91655988 111.97848109 -184.9375 93.8125 C-184.93835602 93.06682518 -184.93921204 92.32115036 -184.94009399 91.55287933 C-184.95153542 82.28522912 -184.97172025 73.01761518 -185 63.75 C-186.13888672 63.80220703 -186.13888672 63.80220703 -187.30078125 63.85546875 C-188.29464844 63.88253906 -189.28851563 63.90960938 -190.3125 63.9375 C-191.29863281 63.97230469 -192.28476563 64.00710937 -193.30078125 64.04296875 C-196 63.75 -196 63.75 -197.875 62.4375 C-199 60.75 -199 60.75 -198.6875 57.5625 C-198.460625 56.634375 -198.23375 55.70625 -198 54.75 C-188.671875 51.640625 -179.34375 48.53125 -170.015625 45.421875 C-169.36855087 45.20614334 -168.72147675 44.99041168 -168.05479431 44.7681427 C-166.1663398 44.13877732 -164.2776307 43.51017599 -162.38891602 42.8815918 C-160.34092216 42.19774686 -158.29415031 41.51020535 -156.24975586 40.81567383 C-152.37707483 39.50222475 -148.55816234 38.33150664 -144.5625 37.4375 C-137.69631705 35.77350158 -131.07396135 33.49557909 -124.390625 31.2265625 C-120.71660569 29.98131995 -117.02544924 28.81235901 -113.3125 27.6875 C-108.74418375 26.30212089 -104.21253882 24.83344207 -99.6875 23.3125 C-89.40902493 19.85908012 -79.06000042 16.65299576 -68.66577148 13.56738281 C-61.15753103 11.33662664 -53.68114895 9.03929027 -46.25 6.5625 C-45.53602051 6.32474854 -44.82204102 6.08699707 -44.08642578 5.84204102 C-40.65533239 4.68634262 -37.25827996 3.47526202 -33.87890625 2.17578125 C-30.52757348 0.90618756 -27.17918697 -0.05076261 -23.6875 -0.875 C-14.64286715 -3.02903548 -8.96460308 -2.35668794 0 0 Z M-37.60929871 103.50177002 C-39.36348425 106.33761446 -39.37439205 108.1270691 -39.37231445 111.44897461 C-39.37854324 112.59373764 -39.38477203 113.73850067 -39.39118958 114.91795349 C-39.38197983 116.15030228 -39.37277008 117.38265106 -39.36328125 118.65234375 C-39.36377975 119.9221962 -39.36427826 121.19204865 -39.36479187 122.50038147 C-39.36245091 125.18635371 -39.35430024 127.87153781 -39.33618164 130.55737305 C-39.31351753 133.99164704 -39.31294745 137.42548076 -39.31969929 140.85980892 C-39.32385459 144.14485342 -39.31185824 147.42982053 -39.30078125 150.71484375 C-39.30169266 151.9451683 -39.30260406 153.17549286 -39.30354309 154.44309998 C-39.29401108 155.59101517 -39.28447906 156.73893036 -39.2746582 157.92163086 C-39.27005081 158.92882675 -39.26544342 159.93602264 -39.26069641 160.97373962 C-38.88050177 165.02258447 -38.04525596 167.83515145 -34.95507812 170.53979492 C-30.82581122 172.23087027 -27.13974102 172.16088399 -22.71875 172.11328125 C-21.82764526 172.11377975 -20.93654053 172.11427826 -20.01843262 172.11479187 C-18.13905603 172.11245695 -16.25967599 172.1027628 -14.38037109 172.08618164 C-11.50980556 172.06258062 -8.64016926 172.06562632 -5.76953125 172.07226562 C-3.94009865 172.06668858 -2.11066995 172.05957853 -0.28125 172.05078125 C1.00174988 172.05214836 1.00174988 172.05214836 2.31066895 172.05354309 C6.61575627 172.00252435 10.1275879 171.86091184 14 169.75 C17.30401266 165.97398553 18.12658346 163.4577089 18.17700195 158.4934082 C18.18983719 157.394991 18.20267242 156.29657379 18.21589661 155.16487122 C18.22328354 153.97222153 18.23067047 152.77957184 18.23828125 151.55078125 C18.246353 150.32723434 18.25442474 149.10368744 18.26274109 147.84306335 C18.27659341 145.24801048 18.2873104 142.65293929 18.29516602 140.05786133 C18.31235395 136.09616309 18.35622893 132.13530446 18.40039062 128.17382812 C18.41051946 125.65365198 18.41903496 123.13346872 18.42578125 120.61328125 C18.44328934 119.43075272 18.46079742 118.24822418 18.47883606 117.02986145 C18.46152757 110.43806701 18.22533854 105.96454521 14 100.75 C9.78097234 98.00885848 4.8181232 98.44388167 -0.0625 98.44921875 C-0.93140869 98.44493362 -1.80031738 98.4406485 -2.69555664 98.43623352 C-4.52782319 98.43050512 -6.36011247 98.42997896 -8.19238281 98.43432617 C-10.99062933 98.43748941 -13.78782129 98.41399753 -16.5859375 98.38867188 C-18.36979034 98.386399 -20.15364601 98.38569533 -21.9375 98.38671875 C-22.77095947 98.377509 -23.60441895 98.36829926 -24.46313477 98.35881042 C-30.10660206 98.40362918 -33.6410287 99.18218883 -37.60929871 103.50177002 Z " fill="#C5C5C5" transform="translate(260,5.25)"/>
<path d="M0 0 C25.72475148 0.09545362 53.45076176 12.45317858 76 24 C76.72155273 24.36625488 77.44310547 24.73250977 78.18652344 25.10986328 C87.08341369 29.64739351 95.70907705 34.41653219 104 40 C104.70946777 40.46954102 105.41893555 40.93908203 106.14990234 41.42285156 C123.55062748 52.94759219 123.55062748 52.94759219 130.69921875 59.8046875 C132.68301149 61.69754238 134.70751697 63.49295734 136.78125 65.28515625 C148.43662171 75.44215419 158.8626788 86.53861102 168 99 C168.60714844 99.81210937 169.21429688 100.62421875 169.83984375 101.4609375 C179.91725961 115.3559156 188.07204953 130.28894141 195.07080078 145.93603516 C195.78890928 147.53111903 196.55479768 149.1047429 197.33984375 150.66796875 C199.29209238 157.56437368 195.417512 164.13786163 192.5625 170.25 C192.15451172 171.1471875 191.74652344 172.044375 191.32617188 172.96875 C189.70788572 176.49571624 188.157303 179.76404549 186 183 C181.97810055 184.34063315 178.27337478 184.18417125 174.0625 184.1875 C173.25103516 184.19974609 172.43957031 184.21199219 171.60351562 184.22460938 C170.81783203 184.22654297 170.03214844 184.22847656 169.22265625 184.23046875 C168.50859619 184.23457764 167.79453613 184.23868652 167.05883789 184.24291992 C164.61064965 183.954061 163.07119164 183.33454903 161 182 C159.63902076 179.50388086 158.48745793 177.10307048 157.375 174.5 C146.72990836 150.83805997 132.63599425 129.32276641 115.05078125 110.23828125 C113.12555454 108.13703381 111.27921697 105.98680694 109.4375 103.8125 C105.92325044 99.8041836 102.11314166 96.38349487 98 93 C97.18668213 92.32614258 97.18668213 92.32614258 96.35693359 91.63867188 C88.54718879 85.18906298 80.71055713 79.20459186 72 74 C71.28714844 73.53722656 70.57429688 73.07445312 69.83984375 72.59765625 C58.43170037 65.33427043 45.98775598 59.42318311 33.0703125 55.44921875 C32.39250732 55.23796356 31.71470215 55.02670837 31.01635742 54.80905151 C27.64555213 53.76521346 24.26994952 52.76967352 20.86621094 51.83886719 C11.84444238 49.13398164 11.84444238 49.13398164 9.54174805 46.04174805 C8.70016869 43.66879157 8.30584655 41.49716759 8 39 C7.66104812 37.36255368 7.31853703 35.72584049 6.97265625 34.08984375 C6.66419047 32.37330103 6.36094638 30.65581307 6.0625 28.9375 C4.59725251 20.8448143 2.82906167 12.9087841 0.734375 4.95703125 C0 2 0 2 0 0 Z " fill="#4A6C92" transform="translate(76,235)"/>
<path d="M0 0 C1.24133743 3.72401228 0.65863977 5.70680116 -0.109375 9.546875 C-0.2368512 10.19513245 -0.36432739 10.84338989 -0.4956665 11.5112915 C-0.90664702 13.59235134 -1.32814245 15.67112076 -1.75 17.75 C-2.01892525 19.10272639 -2.28716102 20.45559004 -2.5546875 21.80859375 C-2.95571013 23.83544984 -3.35979425 25.86142363 -3.77404785 27.88562012 C-4.4798063 31.33518821 -5.14391726 34.78420014 -5.73242188 38.25585938 C-5.85377502 38.93988831 -5.97512817 39.62391724 -6.10015869 40.32867432 C-6.43337782 42.21626304 -6.75087988 44.10660686 -7.06738281 45.99707031 C-8.1303977 49.41986695 -8.91203781 50.29536022 -12 52 C-13.82983398 52.8527832 -13.82983398 52.8527832 -15.74609375 53.55078125 C-16.48585449 53.82954102 -17.22561523 54.10830078 -17.98779297 54.39550781 C-18.79619629 54.69811523 -19.60459961 55.00072266 -20.4375 55.3125 C-47.79128379 65.93106206 -75.40433775 79.50509065 -99 97 C-99.92941406 97.68578125 -100.85882813 98.3715625 -101.81640625 99.078125 C-111.28916157 106.37170187 -119.92920223 114.62585191 -126 125 C-130.20712348 123.47078152 -131.78874632 120.77850689 -134.1875 117.109375 C-134.57188232 116.52714172 -134.95626465 115.94490845 -135.35229492 115.34503174 C-136.57701259 113.48563678 -137.78863894 111.61811728 -139 109.75 C-139.81424547 108.50855096 -140.62934132 107.26765921 -141.4453125 106.02734375 C-142.9545635 103.73090727 -144.45768559 101.43088639 -145.95703125 99.12792969 C-147.36289899 96.97544672 -148.79891984 94.84245546 -150.25927734 92.7265625 C-152 90 -152 90 -152.0390625 87.953125 C-150.54019651 85.13570772 -148.56596948 83.0667351 -146.375 80.75 C-145.53710938 79.85796875 -144.69921875 78.9659375 -143.8359375 78.046875 C-143.38412109 77.56742432 -142.93230469 77.08797363 -142.46679688 76.59399414 C-140.83193177 74.81735728 -139.25650854 72.99628106 -137.6796875 71.16796875 C-133.87024155 66.79523425 -129.85217608 62.66001505 -125.75 58.5625 C-125.00419678 57.81750244 -124.25839355 57.07250488 -123.48999023 56.30493164 C-117.9237177 50.80000538 -112.19773075 45.78782043 -106 41 C-105.17371094 40.31808594 -104.34742188 39.63617188 -103.49609375 38.93359375 C-98.50311119 34.81575054 -93.38729802 31.16112573 -87.875 27.76953125 C-85.95922656 26.59039352 -84.06285188 25.37913937 -82.1875 24.13671875 C-75.3008481 19.66218841 -68.21680785 16.08908035 -60.75 12.6875 C-59.82727295 12.26686279 -58.9045459 11.84622559 -57.95385742 11.4128418 C-39.4239551 3.14350483 -20.28880112 -0.56270943 0 0 Z " fill="#A03B3B" transform="translate(423,231)"/>
<path d="M0 0 C26.06100249 3.94863674 52.22803823 26.76473892 70.40771484 44.45458984 C71.77528763 45.7819029 73.16130336 47.09016686 74.55078125 48.39453125 C90.4250525 63.59210177 106.73156426 85.72842299 113 107 C112.505 108.485 112.505 108.485 112 110 C106.57431209 110.24820164 101.151958 110.42908715 95.72192383 110.54931641 C93.87758819 110.59944741 92.03364695 110.66757774 90.19067383 110.75439453 C74.88956644 111.45684883 74.88956644 111.45684883 70.19189453 107.83496094 C67.57726478 104.21044774 66 101.51252052 66 97 C65.42121094 96.74863281 64.84242188 96.49726563 64.24609375 96.23828125 C61.71716323 94.84407086 60.0656954 93.26209642 58.0625 91.1875 C57.35996094 90.46820313 56.65742188 89.74890625 55.93359375 89.0078125 C55.29550781 88.34523438 54.65742188 87.68265625 54 87 C46.62548671 79.43142057 38.97540919 72.67658388 30.11523438 66.91894531 C28.71163768 65.99250393 27.35099208 65.00159758 26 64 C26 63.34 26 62.68 26 62 C25.319375 61.7525 24.63875 61.505 23.9375 61.25 C20.43134917 59.75802092 17.28379632 57.93164489 14 56 C14 55.34 14 54.68 14 54 C12.02 53.34 10.04 52.68 8 52 C8 51.34 8 50.68 8 50 C7.0409375 49.7215625 7.0409375 49.7215625 6.0625 49.4375 C4 48 4 48 3.41821289 44.85473633 C3.28020264 43.58267334 3.14219238 42.31061035 3 41 C2.87165771 39.85104248 2.74331543 38.70208496 2.61108398 37.51831055 C2.28475719 34.27141348 1.96008069 31.02440606 1.64282227 27.77661133 C1.43900379 25.70280072 1.22835733 23.62975371 1.01757812 21.55664062 C0.30263449 14.35444929 -0.22368746 7.24120607 0 0 Z " fill="#6D9C6A" transform="translate(93,309)"/>
<path d="M0 0 C1.0282797 0.00378534 1.0282797 0.00378534 2.07733274 0.00764716 C4.36738359 0.0173458 6.65731954 0.03438301 8.94732666 0.05142212 C10.59173877 0.05993179 12.2361532 0.06800285 13.88056946 0.07566833 C18.34097908 0.09783754 22.80132506 0.12651135 27.26168728 0.15662336 C31.92570161 0.187292 36.58974416 0.21290877 41.25378418 0.23931885 C49.08183346 0.28448444 56.90984686 0.33396686 64.737854 0.38589478 C73.79980738 0.44594494 82.86178166 0.49869542 91.92380118 0.54766309 C100.63286757 0.59492897 109.34189188 0.64776812 118.05091095 0.703022 C121.76222158 0.72644246 125.47353578 0.74780702 129.18486786 0.76752853 C133.54821924 0.79093527 137.91151266 0.81917121 142.27480888 0.85121727 C143.8804892 0.86220963 145.48618223 0.87149012 147.09188271 0.87898064 C149.27428802 0.88943456 151.45656302 0.905941 153.63891602 0.92407227 C154.86301556 0.93182364 156.0871151 0.939575 157.34830856 0.94756126 C160.06549072 1.08901978 160.06549072 1.08901978 161.06549072 2.08901978 C162.0191538 7.34779048 162.27823416 12.50201696 162.31549072 17.83901978 C162.34642822 18.97017212 162.34642822 18.97017212 162.37799072 20.12417603 C162.41648093 25.54167251 162.41648093 25.54167251 160.96768284 27.80098248 C158.10239166 29.74116606 155.73875988 29.46370611 152.30229187 29.46324158 C151.26538313 29.46920319 151.26538313 29.46920319 150.20752674 29.47528523 C147.88580373 29.48492768 145.56468711 29.47307892 143.24298096 29.46133423 C141.58077771 29.46376154 139.91857592 29.46748027 138.25637817 29.47239685 C133.73789291 29.48181712 129.21962383 29.47237131 124.70115542 29.45906472 C119.97885519 29.44776674 115.25656585 29.4518564 110.53425598 29.45381165 C102.60428322 29.45469506 94.67439588 29.44360363 86.7444458 29.42520142 C77.56661024 29.40402578 68.38889977 29.40052518 59.21104473 29.40676337 C50.39307589 29.41245085 41.57515126 29.40681914 32.7571888 29.39558983 C28.99923958 29.3909364 25.24131733 29.39007319 21.48336601 29.39217567 C17.06174825 29.39405434 12.64025847 29.38598731 8.21866989 29.37011528 C6.59244249 29.3658599 4.96620214 29.36503025 3.33997154 29.36780548 C1.1270742 29.37100993 -1.08543651 29.36198998 -3.29829407 29.34971619 C-4.53881814 29.34766332 -5.77934221 29.34561045 -7.05745792 29.34349537 C-9.93450928 29.08901978 -9.93450928 29.08901978 -11.93450928 27.08901978 C-13.29310212 23.41737962 -13.06729108 19.6479655 -13.05950928 15.77651978 C-13.0620874 14.50163696 -13.06466553 13.22675415 -13.06732178 11.91323853 C-12.93839802 8.20099264 -12.53083515 4.74743167 -11.93450928 1.08901978 C-7.89471665 0.12249187 -4.14838633 -0.02368424 0 0 Z " fill="#47678C" transform="translate(176.93450927734375,430.9109802246094)"/>
<path d="M0 0 C-0.31014392 2.08368538 -0.6232052 4.16693668 -0.9375 6.25 C-1.11152344 7.41015625 -1.28554688 8.5703125 -1.46484375 9.765625 C-1.8748836 12.24382206 -2.38526041 14.57318488 -3 17 C-3.30787759 18.42035533 -3.60828161 19.84234522 -3.90234375 21.265625 C-4.07056641 22.07386719 -4.23878906 22.88210938 -4.41210938 23.71484375 C-4.75910415 25.38919028 -5.10547054 27.06366718 -5.45117188 28.73828125 C-6.51847869 33.85973069 -7.69820491 38.93292316 -9 44 C-9.66 44 -10.32 44 -11 44 C-11 44.66 -11 45.32 -11 46 C-11.99 46 -12.98 46 -14 46 C-14 46.66 -14 47.32 -14 48 C-16.16254885 49.39568756 -18.32272218 50.67645785 -20.5625 51.9375 C-33.63004228 59.53679766 -45.49454774 68.8168788 -56.9375 78.66796875 C-60.82020308 82 -60.82020308 82 -63 82 C-63.268125 82.5775 -63.53625 83.155 -63.8125 83.75 C-65.02929189 86.05550043 -66.30333879 88.02056192 -68 90 C-68.66 90 -69.32 90 -70 90 C-70.495 91.485 -70.495 91.485 -71 93 C-71.66 93 -72.32 93 -73 93 C-73.2475 93.886875 -73.495 94.77375 -73.75 95.6875 C-75.08817387 99.23366076 -76.3623623 101.29009826 -79 104 C-81.609375 104.70703125 -81.609375 104.70703125 -84.75 104.8125 C-85.96429688 104.85890625 -87.17859375 104.9053125 -88.4296875 104.953125 C-89.95306022 104.97413704 -91.4765217 104.98905285 -93 105 C-93.99032227 105.00837891 -94.98064453 105.01675781 -96.00097656 105.02539062 C-103.00111543 105.07156845 -109.99997834 105.05607609 -117 105 C-118 103 -118 103 -117.46875 101.2578125 C-110.38407306 85.66009634 -100.67490308 71.76262346 -89.48046875 58.875 C-87.25513243 56.29571255 -85.12483738 53.66178333 -83 51 C-79.7896328 47.60078767 -76.36379167 44.42975967 -72.9375 41.25 C-71.68259766 40.08210938 -71.68259766 40.08210938 -70.40234375 38.890625 C-68 37 -68 37 -65.81640625 36.484375 C-65.21699219 36.32453125 -64.61757813 36.1646875 -64 36 C-63.72414063 35.42507813 -63.44828125 34.85015625 -63.1640625 34.2578125 C-61.40613034 30.84813199 -58.43467207 29.04774318 -55.375 26.875 C-54.71781982 26.40215576 -54.06063965 25.92931152 -53.38354492 25.44213867 C-48.44669017 21.93263959 -43.41853769 18.57039074 -38.3125 15.3125 C-37.64202637 14.87856934 -36.97155273 14.44463867 -36.28076172 13.99755859 C-32.82492708 11.84063201 -31.17576222 11 -27 11 C-27 10.34 -27 9.68 -27 9 C-24.08665249 7.51422858 -21.16878347 6.03756005 -18.25 4.5625 C-17.0125 3.93118164 -17.0125 3.93118164 -15.75 3.28710938 C-14.95078125 2.88427734 -14.1515625 2.48144531 -13.328125 2.06640625 C-12.5949707 1.69459229 -11.86181641 1.32277832 -11.10644531 0.93969727 C-6.98837787 -0.8973961 -4.39592513 -1.09898128 0 0 Z " fill="#6E9D6B" transform="translate(416,314)"/>
<path d="M0 0 C22.40874194 -0.02332665 44.81748188 -0.04097802 67.22623348 -0.05181217 C77.63023725 -0.05697563 88.03423349 -0.06401926 98.43823242 -0.07543945 C107.50290274 -0.08538478 116.5675676 -0.09185307 125.63224322 -0.09408849 C130.43502608 -0.09539586 135.23779334 -0.09848333 140.04057121 -0.10573006 C144.555668 -0.11248789 149.07074268 -0.11461745 153.58584404 -0.11310768 C155.2479718 -0.11338412 156.91010026 -0.11539064 158.57222366 -0.11920547 C160.83149692 -0.12413904 163.09068534 -0.12299955 165.34996033 -0.12025452 C166.61742568 -0.12117631 167.88489103 -0.1220981 169.19076443 -0.12304783 C172 0 172 0 173 1 C173.09946453 2.76859193 173.13080217 4.54111451 173.1328125 6.3125 C173.13410156 7.38757813 173.13539063 8.46265625 173.13671875 9.5703125 C173.13285156 10.70210938 173.12898437 11.83390625 173.125 13 C173.12886719 14.13179688 173.13273438 15.26359375 173.13671875 16.4296875 C173.13478516 18.04230469 173.13478516 18.04230469 173.1328125 19.6875 C173.13168457 20.68136719 173.13055664 21.67523438 173.12939453 22.69921875 C173 25 173 25 172 26 C169.7850814 26.09701605 167.56700203 26.12186691 165.34996033 26.12025452 C164.6467349 26.12110894 163.94350947 26.12196337 163.21897417 26.12284368 C160.84509484 26.12450053 158.47128502 26.1189738 156.09741211 26.11352539 C154.40270489 26.11324354 152.70799755 26.11340122 151.01329041 26.1139679 C146.39778374 26.11425594 141.78230283 26.10835809 137.16680217 26.10139394 C132.34879736 26.09516156 127.53079203 26.09455669 122.71278381 26.09336853 C113.58257502 26.09025487 104.45237814 26.08204102 95.32217461 26.07201904 C84.93057324 26.06085898 74.53897132 26.05534772 64.14736545 26.05032361 C42.76490364 26.03985843 21.38245257 26.02225832 0 26 C-0.19777236 22.6046836 -0.38139685 19.20874308 -0.5625 15.8125 C-0.61857422 14.85279297 -0.67464844 13.89308594 -0.73242188 12.90429688 C-0.78076172 11.97294922 -0.82910156 11.04160156 -0.87890625 10.08203125 C-0.9260376 9.22843018 -0.97316895 8.3748291 -1.02172852 7.49536133 C-0.99892429 4.87646242 -0.59213206 2.54596848 0 0 Z " fill="#73A470" transform="translate(165,470)"/>
<path d="M0 0 C2.15234375 0.3671875 2.15234375 0.3671875 4 1 C1.54976242 3.50804718 -0.91147598 6.0050076 -3.375 8.5 C-4.42300781 9.57314453 -4.42300781 9.57314453 -5.4921875 10.66796875 C-6.1625 11.34472656 -6.8328125 12.02148438 -7.5234375 12.71875 C-8.14138184 13.34716797 -8.75932617 13.97558594 -9.39599609 14.62304688 C-11 16 -11 16 -13 16 C-13.268125 16.639375 -13.53625 17.27875 -13.8125 17.9375 C-15 20 -15 20 -18 21 C-15.06386658 14.6406968 -9.96604772 9.83871317 -5 5 C-4.154375 4.05125 -3.30875 3.1025 -2.4375 2.125 C-1.633125 1.42375 -0.82875 0.7225 0 0 Z " fill="#425D41" transform="translate(343,355)"/>
<path d="M0 0 C0.33 0.66 0.66 1.32 1 2 C13.21 2 25.42 2 38 2 C38 2.33 38 2.66 38 3 C25.34218554 4.24795354 12.70457176 4.10177436 0 4 C-0.33 3.34 -0.66 2.68 -1 2 C-0.67 1.34 -0.34 0.68 0 0 Z " fill="#3A4F39" transform="translate(299,415)"/>
<path d="M0 0 C4.29 0.33 8.58 0.66 13 1 C13 1.33 13 1.66 13 2 C10.36 2.33 7.72 2.66 5 3 C3.90348177 6.41139003 4.05784527 9.20655581 4.4375 12.75 C4.53933594 13.73484375 4.64117187 14.7196875 4.74609375 15.734375 C4.82988281 16.48203125 4.91367188 17.2296875 5 18 C2.1177894 15.1177894 2.0310939 11.75130987 1.375 7.875 C1.2409375 7.12089844 1.106875 6.36679688 0.96875 5.58984375 C0.63876771 3.72780082 0.31845927 1.86404825 0 0 Z " fill="#28384C" transform="translate(76,235)"/>
</svg>
